<svg id="Artwork" xmlns="http://www.w3.org/2000/svg" viewBox="0 0 686.13 106.27"><path d="M0,33.18C.87,31.41,1.5,30,2.48,28.35A39.74,39.74,0,0,1,0,21.42V33.18M5.29,0S0,0,0,6.56V7.61A65.25,65.25,0,0,0,4.46,25.2a46,46,0,0,1,10-11.33C23,6.52,33.1,2.24,48.77,0Z" transform="translate(0 0)" style="fill:#a8bd3a"/><path d="M56.42,3.59C38.49,5.3,26.25,10.42,17.47,17.92A44,44,0,0,0,6.81,30.65c6.87,13.37,20.86,24.6,42.74,26H50s6.73.23,6.73-7.25V3.53a1.27,1.27,0,0,1-.28.06M10.33,41.65A46.47,46.47,0,0,1,5,33.86,84.09,84.09,0,0,0,0,45.54V56.6l33,.06c-10.45-3.18-16.74-8-22.7-15" transform="translate(0 0)" style="fill:#003c57"/><path d="M88.13,105.91c-9.56,0-13.84-7.93-13.84-17.68s4.28-17.68,13.84-17.68,13.8,8,13.8,17.68-4.23,17.68-13.8,17.68m0-32.54c-7,0-9.56,7.73-9.56,14.81s2.28,14.66,9.56,14.66,9.52-7.68,9.52-14.66S95.2,73.37,88.13,73.37" transform="translate(0 0)" style="fill:#003c57"/><path d="M113.83,81v24.31H110V81h-4V78.57h4V74.71c0-4.85,2.87-8.37,8.52-8.37h.91v2.48h-.46c-2.68,0-5.1,1.73-5.1,5.39v4.31h5.56V80.9Z" transform="translate(0 0)" style="fill:#003c57"/><path d="M129.82,81v24.31H126V81h-4V78.57h4V74.71c0-4.85,2.87-8.37,8.52-8.37h.91v2.48h-.46c-2.68,0-5.1,1.73-5.1,5.39v4.31h5.56V80.9Z" transform="translate(0 0)" style="fill:#003c57"/><path d="M141.76,73.47a2.4,2.4,0,0,1-2.46-2.34h0a2.46,2.46,0,0,1,4.92,0h0a2.39,2.39,0,0,1-2.4,2.38h0m-2,5.1h3.91V105.3H139.8Z" transform="translate(0 0)" style="fill:#003c57"/><path d="M160.39,105.9c-6.33,0-11.21-5.44-11.21-14s4.88-14,11.34-14c3.23,0,5.37.89,6.51,1.83l-1,2.38a7.87,7.87,0,0,0-4.64-1.44c-5.42,0-8.2,4.71-8.2,11,0,6.54,3.19,11.2,8.06,11.2a8.5,8.5,0,0,0,4.74-1.44l1,2.57c-1.14.94-3.41,1.83-6.64,1.83" transform="translate(0 0)" style="fill:#003c57"/><path d="M173.37,93.53c.5,6.28,4,9.45,9.38,9.45a15.54,15.54,0,0,0,7.24-1.63l1.14,2.73a19,19,0,0,1-8.66,1.83c-7.51,0-12.84-4.46-12.84-14.07,0-9.16,4.92-13.91,11.62-13.91S192.13,82.09,192.13,91Zm7.76-13.08c-4.33,0-8,3.37-7.92,10.85l15.16-2.08c0-6.19-3-8.77-7.24-8.77" transform="translate(0 0)" style="fill:#003c57"/><path d="M211,81v24.31h-3.9V81h-4V78.57h4V74.71c0-4.85,2.87-8.37,8.52-8.37h.91v2.48h-.43c-2.68,0-5.09,1.73-5.09,5.39v4.31h5.55V80.9Z" transform="translate(0 0)" style="fill:#003c57"/><path d="M230.74,105.9c-7.87,0-11.47-6.08-11.47-14s3.6-14,11.47-14,11.44,6.14,11.44,14-3.56,14-11.44,14m0-25.35c-5.82,0-7.51,5.9-7.51,11.39s1.82,11.14,7.51,11.14,7.52-5.64,7.52-11.14-1.69-11.39-7.52-11.39" transform="translate(0 0)" style="fill:#003c57"/><path d="M259,81.05c-2.47-.65-6.06-.55-7.75.49v23.72h-3.91V79.76c2.82-1.19,5.64-1.83,10.65-1.83.68,0,1.6,0,2,0Z" transform="translate(0 0)" style="fill:#003c57"/><path d="M294.13,105.52,279,82.2a33,33,0,0,1-2-3.46h-.09s.13,2,.13,4.05v22.73h-5V71.45h5.6l14.48,21.92a29.8,29.8,0,0,1,2,3.52h0s-.18-1.94-.18-4V71.45h5v34.07Z" transform="translate(0 0)" style="fill:#003c57"/><path d="M315.31,106.22c-7.83,0-11.52-3.13-11.52-8.23,0-7.17,7.51-9.11,16.43-9.9V86.56c0-3.67-2.5-4.76-6.14-4.76a18.81,18.81,0,0,0-7.24,1.54l-1.32-3.27a25.36,25.36,0,0,1,9.61-1.93c5.91,0,10.47,2.42,10.47,9.26v16.88a23.76,23.76,0,0,1-10.29,1.94m4.91-15.46c-6.6.7-11,1.94-11,7.09,0,3.61,2.56,5.15,6.57,5.15a10.34,10.34,0,0,0,4.45-.9Z" transform="translate(0 0)" style="fill:#003c57"/><path d="M341.13,106.12c-5.6,0-7.74-3.62-7.74-7.23V82.3h-3.73V78.83h3.73v-6l5.69-1.58v7.57h5.19v3.47H339V98.58a3.43,3.43,0,0,0,3.13,3.71h.52a5.39,5.39,0,0,0,1.54-.25v3.52a8,8,0,0,1-3.14.55" transform="translate(0 0)" style="fill:#003c57"/><path d="M351.56,74.23a3,3,0,1,1,3.32-3,3.18,3.18,0,0,1-3.32,3m-2.87,4.6h5.74v26.7h-5.74Z" transform="translate(0 0)" style="fill:#003c57"/><path d="M371.55,106.22c-8.15,0-12.2-6-12.2-14s4-14.06,12.2-14.06,12.16,6.09,12.16,14.06-4,14-12.16,14m0-24.42c-4.91,0-6.37,5.15-6.37,10.35s1.55,10.15,6.37,10.15,6.38-5,6.38-10.15-1.46-10.35-6.38-10.35" transform="translate(0 0)" style="fill:#003c57"/><path d="M404.9,105.52V86.46c0-3.42-2.92-4.71-6.2-4.71a13.33,13.33,0,0,0-4.6.79v23h-5.69V80.07A28.1,28.1,0,0,1,399,78.14c7,0,11.61,2.37,11.61,8.22v19.16Z" transform="translate(0 0)" style="fill:#003c57"/><path d="M426.67,106.22c-7.83,0-11.53-3.13-11.53-8.23,0-7.17,7.52-9.11,16.44-9.9V86.56c0-3.67-2.5-4.76-6.14-4.76a18.81,18.81,0,0,0-7.24,1.54l-1.32-3.27a25.36,25.36,0,0,1,9.61-1.93c5.91,0,10.47,2.42,10.47,9.26v16.88a23.91,23.91,0,0,1-10.29,1.94m4.91-15.46c-6.6.7-11,1.94-11,7.09,0,3.61,2.56,5.15,6.56,5.15a10.38,10.38,0,0,0,4.46-.9Z" transform="translate(0 0)" style="fill:#003c57"/><polygon points="442.84 105.52 442.84 92.64 442.84 66.65 448.53 66.65 448.53 79.84 448.53 105.52 442.84 105.52" style="fill:#003c57"/><path d="M471.13,106.22a20.14,20.14,0,0,1-9.29-1.94l1.59-4.16a14.14,14.14,0,0,0,6.56,1.64c4,0,6.79-2.33,6.79-5.7,0-7.47-14.17-4.6-14.17-15.2,0-5.4,4.38-10.1,11.3-10.1a16.79,16.79,0,0,1,8.19,1.93l-1.42,3.68a12.61,12.61,0,0,0-6-1.58c-3.69,0-6.1,2.23-6.1,5.4,0,7.33,14.48,4.15,14.48,15.44,0,6-5,10.56-11.93,10.56" transform="translate(0 0)" style="fill:#003c57"/><path d="M497.53,106.12c-5.6,0-7.74-3.62-7.74-7.23V82.3h-3.73V78.83h3.73v-6l5.7-1.58v7.57h5.18v3.47h-5.18V98.58a3.42,3.42,0,0,0,3.11,3.7,4.69,4.69,0,0,0,.53,0,5.39,5.39,0,0,0,1.54-.25v3.52a8,8,0,0,1-3.14.55" transform="translate(0 0)" style="fill:#003c57"/><path d="M515.3,106.22c-7.84,0-11.53-3.13-11.53-8.23,0-7.17,7.52-9.11,16.45-9.9V86.56c0-3.67-2.51-4.76-6.15-4.76a18.84,18.84,0,0,0-7.24,1.57l-1.32-3.27a25.27,25.27,0,0,1,9.6-1.93c5.93,0,10.48,2.42,10.48,9.26v16.88a23.76,23.76,0,0,1-10.29,1.94m4.92-15.46c-6.61.7-11,1.94-11,7.09,0,3.61,2.55,5.15,6.55,5.15a10.43,10.43,0,0,0,4.47-.9Z" transform="translate(0 0)" style="fill:#003c57"/><path d="M541.13,106.12c-5.61,0-7.75-3.62-7.75-7.23V82.3h-3.73V78.83h3.73v-6l5.69-1.58v7.57h5.19v3.47h-5.19V98.58a3.43,3.43,0,0,0,3.13,3.71h.52a5.39,5.39,0,0,0,1.54-.25v3.52a8,8,0,0,1-3.13.55" transform="translate(0 0)" style="fill:#003c57"/><path d="M551.55,74.23a3,3,0,1,1,3.33-3,3.17,3.17,0,0,1-3.33,3m-2.87,4.6h5.74v26.7h-5.74Z" transform="translate(0 0)" style="fill:#003c57"/><path d="M566.86,106.22a16.67,16.67,0,0,1-8.07-1.94l1.51-3.66a11.09,11.09,0,0,0,5.83,1.58c2.91,0,5.23-1.88,5.23-4.15,0-6.34-11.7-3.38-11.7-12.09,0-4,3.55-7.82,9.33-7.82a14.26,14.26,0,0,1,7.52,1.93L575,83.38a8.86,8.86,0,0,0-4.88-1.53c-3,0-4.78,1.78-4.78,3.81,0,6,11.93,3.32,11.93,12.24,0,4.25-4,8.32-10.42,8.32" transform="translate(0 0)" style="fill:#003c57"/><path d="M591.77,106.12c-5.6,0-7.74-3.62-7.74-7.23V82.3H580.3V78.83H584v-6l5.69-1.58v7.57h5.19v3.47h-5.19V98.58a3.43,3.43,0,0,0,3.13,3.71h.52a5.39,5.39,0,0,0,1.54-.25v3.52a8,8,0,0,1-3.14.55" transform="translate(0 0)" style="fill:#003c57"/><path d="M602.25,74.23a3,3,0,1,1,3.33-3,3.17,3.17,0,0,1-3.33,3m-2.87,4.6h5.75v26.7h-5.74Z" transform="translate(0 0)" style="fill:#003c57"/><path d="M621.61,106.22c-6.56,0-11.57-5.36-11.57-14.07s5.15-14,11.61-14a11,11,0,0,1,6.83,1.93l-1.28,3.21A7.19,7.19,0,0,0,623,82c-4.65,0-7.06,4-7.06,10s2.78,10.11,7,10.11a7.18,7.18,0,0,0,4.17-1.35l1.41,3.52c-1.19,1-3.51,1.94-6.92,1.94" transform="translate(0 0)" style="fill:#003c57"/><path d="M639.53,106.22a16.63,16.63,0,0,1-8.06-1.94l1.5-3.66a11.18,11.18,0,0,0,5.83,1.58c2.91,0,5.23-1.88,5.23-4.15,0-6.34-11.7-3.38-11.7-12.09,0-4,3.56-7.82,9.34-7.82a14.25,14.25,0,0,1,7.51,1.93l-1.5,3.31a8.91,8.91,0,0,0-4.87-1.53c-3,0-4.79,1.78-4.79,3.81C638,91.61,650,89,650,97.9c0,4.25-4.05,8.32-10.42,8.32" transform="translate(0 0)" style="fill:#003c57"/><path d="M83.13,48.12a18.83,18.83,0,0,1-8.74-1.83l1.23-3a14.93,14.93,0,0,0,6.78,1.63c4.56,0,7.93-2.77,7.93-6.78,0-8.51-15.17-5-15.17-15.79,0-5.1,4.1-9.61,10.7-9.61a15.84,15.84,0,0,1,7.75,1.83l-1.14,2.68a12.39,12.39,0,0,0-6.15-1.64c-4.24,0-7,2.63-7,6.39,0,8.17,15.3,4.55,15.3,15.89C94.58,43.87,89.75,48.12,83.13,48.12Z" transform="translate(0 0)" style="fill:#003c57"/><path d="M126.43,47.48h-3.51l-6-19.66a20.84,20.84,0,0,1-.73-3.22h-.06a19.64,19.64,0,0,1-.69,3.22l-6.31,19.66h-3.5L97.25,20.79h4.14l5.5,19.58a24.82,24.82,0,0,1,.69,3.41h.09a22.24,22.24,0,0,1,.72-3.41l6.06-19.61h3.68L124,40.37a33,33,0,0,1,.78,3.41h.09a30.25,30.25,0,0,1,.68-3.41l5.6-19.61h3.69Z" transform="translate(0 0)" style="fill:#003c57"/><path d="M146.71,58.13h-4.32l4.74-10.65-9.84-26.69h4.28L148,40.45a29.79,29.79,0,0,1,.91,3.61H149s.41-1.83,1-3.61l6.6-19.66h3.65Z" transform="translate(0 0)" style="fill:#003c57"/><path d="M175.65,48.12c-8.43,0-12.66-5.25-12.66-13.52,0-8.91,5.1-14.26,12.66-14.26a20,20,0,0,1,5,.6V8.61h3.87V46.29A18.74,18.74,0,0,1,175.65,48.12Zm5-25a17,17,0,0,0-4.14-.45c-7,0-9.52,5.75-9.52,11.59,0,6.78,2.59,11.24,8.92,11.24a9.72,9.72,0,0,0,4.74-1Z" transform="translate(0 0)" style="fill:#003c57"/><path d="M202.3,48.12c-8.43,0-12.66-5.25-12.66-13.52,0-8.91,5.1-14.26,12.66-14.26a20,20,0,0,1,5,.6V8.61h3.83V46.29A18.7,18.7,0,0,1,202.3,48.12Zm5-25a17.54,17.54,0,0,0-4.15-.45c-7,0-9.52,5.75-9.52,11.59,0,6.78,2.6,11.24,8.93,11.24a9.72,9.72,0,0,0,4.74-1Z" transform="translate(0 0)" style="fill:#003c57"/><path d="M223.63,23.17V47.48h-3.88V23.17h-4V20.79h4V16.93c0-4.85,2.87-8.37,8.52-8.37.41,0,.91,0,.91,0v2.48h-.45c-2.69,0-5.1,1.73-5.1,5.39v4.31h5.55v2.38Z" transform="translate(0 0)" style="fill:#003c57"/><path d="M242,48.12c-7.42,0-10.75-3.12-10.75-7.87,0-7.28,7.52-9.31,16.54-10.15V28.47c0-4.31-2.92-5.65-6.88-5.65A17.4,17.4,0,0,0,234,24.36L233,22a21.6,21.6,0,0,1,8.61-1.83c5.42,0,9.89,2.18,9.89,8.66V46.29A21.36,21.36,0,0,1,242,48.12Zm5.79-15.94c-7.7.89-12.75,2.23-12.75,8,0,4,2.91,5.65,7.37,5.65a12.18,12.18,0,0,0,5.38-1.09Z" transform="translate(0 0)" style="fill:#003c57"/><path d="M283.87,32.7V47.51h-6V32.7L267.44,13.44h6.38L281.13,28h.09l7.47-14.51h5.74Z" transform="translate(0 0)" style="fill:#003c57"/><path d="M304,48.2A16.74,16.74,0,0,1,296,46.27l1.5-3.67a11.09,11.09,0,0,0,5.83,1.59c2.92,0,5.24-1.88,5.24-4.16,0-6.34-11.7-3.37-11.7-12.08,0-4,3.55-7.82,9.33-7.82a14.26,14.26,0,0,1,7.52,1.93l-1.54,3.31a8.82,8.82,0,0,0-4.87-1.53c-3,0-4.78,1.78-4.78,3.81,0,5.94,11.93,3.32,11.93,12.23C314.44,44.14,310.39,48.2,304,48.2Z" transform="translate(0 0)" style="fill:#003c57"/><path d="M328.94,48.1c-5.6,0-7.74-3.62-7.74-7.23V24.28h-3.74V20.82h3.74v-6l5.69-1.59v7.58h5.24v3.46h-5.19v16.3a3.43,3.43,0,0,0,3.13,3.71h.51a5.4,5.4,0,0,0,1.55-.25v3.51A8.08,8.08,0,0,1,328.94,48.1Z" transform="translate(0 0)" style="fill:#003c57"/><path d="M346.71,48.2c-7.83,0-11.52-3.12-11.52-8.22,0-7.18,7.51-9.11,16.44-9.9V28.54c0-3.66-2.51-4.75-6.15-4.75a19,19,0,0,0-7.24,1.53l-1.32-3.26a25.17,25.17,0,0,1,9.61-1.93c5.92,0,10.47,2.42,10.47,9.25V46.27A24.08,24.08,0,0,1,346.71,48.2Zm4.92-15.45c-6.61.69-11,1.93-11,7.08,0,3.61,2.55,5.15,6.56,5.15a10.53,10.53,0,0,0,4.46-.89Z" transform="translate(0 0)" style="fill:#003c57"/><path d="M375.05,48.2c-8.61,0-13.34-5-13.34-13.67s5.19-14.16,12.7-14.16a19.88,19.88,0,0,1,4.74.55V8.64h5.69V46.27A21.29,21.29,0,0,1,375.05,48.2Zm4.1-24.26a14.09,14.09,0,0,0-3.42-.4c-5.87,0-8.19,4.95-8.19,10.65,0,6.48,2.27,10.35,7.69,10.35a8.56,8.56,0,0,0,3.92-.85Z" transform="translate(0 0)" style="fill:#003c57"/><path d="M395.06,36.22c.54,5.29,3.46,8,8.38,8A17.49,17.49,0,0,0,411,42.68l1.37,3.62a21.51,21.51,0,0,1-9.38,1.93c-8.16,0-13.39-4.95-13.39-14.11,0-8.82,4.87-14,12.25-14s11.52,4.7,11.52,13.66Zm6.51-12.63c-3.92,0-7,3.12-6.88,9.75l13.12-1.83C407.81,26,405.35,23.59,401.57,23.59Z" transform="translate(0 0)" style="fill:#003c57"/><path d="M428.23,58.84a25.18,25.18,0,0,1-10-1.88l1.5-3.66a20,20,0,0,0,7.66,1.53c5,0,7.15-2.57,7.15-6.29V46.81a13.33,13.33,0,0,1-5.88,1.09c-7,0-11.61-5.1-11.61-13.17,0-8.62,4.69-14.6,13.84-14.6,4,0,7.52.88,9.3,1.93V48C440.21,55,435.33,58.84,428.23,58.84Zm6.33-34.47a8.42,8.42,0,0,0-3.92-.84c-5.19,0-7.74,4.21-7.74,11,0,6.59,2.55,10.15,7.47,10.15a9.19,9.19,0,0,0,4.19-.89Z" transform="translate(0 0)" style="fill:#003c57"/><path d="M456.25,48.2c-7.84,0-11.53-3.12-11.53-8.22,0-7.18,7.52-9.11,16.45-9.9V28.54c0-3.66-2.51-4.75-6.15-4.75a19,19,0,0,0-7.24,1.53l-1.32-3.26a25.08,25.08,0,0,1,9.6-1.93c5.93,0,10.48,2.42,10.48,9.25V46.27A24.08,24.08,0,0,1,456.25,48.2Zm4.88-15.45c-6.61.69-11,1.93-11,7.08,0,3.61,2.56,5.15,6.56,5.15a10.57,10.57,0,0,0,4.47-.89Z" transform="translate(0 0)" style="fill:#003c57"/><path d="M483.13,48.2c-7.56,0-10.89-3.52-10.89-9.21V20.82h5.69V39.29c0,2.82,1.78,5,5.47,5a11.16,11.16,0,0,0,4.87-.89V20.82H494V46.27A26.3,26.3,0,0,1,483.13,48.2Z" transform="translate(0 0)" style="fill:#003c57"/><path d="M528.69,48.2c-9.83,0-16.44-6.29-16.44-17.92,0-11,7.2-17.53,16.72-17.53,4.5,0,7.33.89,9.24,1.93l-1.45,3.61a16.8,16.8,0,0,0-7-1.28c-6.51,0-11.29,4.06-11.29,13.51,0,8.92,4.46,13.57,10,13.57a11.39,11.39,0,0,0,4.69-.79V31.66h-6V28.1h11.75V46.27C536.71,47.46,533.29,48.2,528.69,48.2Z" transform="translate(0 0)" style="fill:#003c57"/><path d="M574,47.51h-5.28L563.5,30.08a21.72,21.72,0,0,1-.68-3.47h-.09a21.72,21.72,0,0,1-.68,3.47l-5.42,17.43h-5.29l-8.21-26.69H549l4.69,17.82a25.39,25.39,0,0,1,.64,3.67h.09a23,23,0,0,1,.77-3.67l5.33-17.82h5l5.15,17.82a26.77,26.77,0,0,1,.73,3.67h.09a23.88,23.88,0,0,1,.64-3.67L577,20.82h5.23Z" transform="translate(0 0)" style="fill:#003c57"/><path d="M586.34,47.51V8.64H592V47.51Z" transform="translate(0 0)" style="fill:#003c57"/><path d="M608.3,48.2c-7.84,0-11.52-3.12-11.52-8.22,0-7.18,7.51-9.11,16.44-9.9V28.54c0-3.66-2.51-4.75-6.15-4.75a19,19,0,0,0-7.24,1.58l-1.32-3.26a25.17,25.17,0,0,1,9.61-1.93c5.92,0,10.47,2.42,10.47,9.25V46.27A24.08,24.08,0,0,1,608.3,48.2Zm4.92-15.45c-6.61.69-11,1.93-11,7.08,0,3.61,2.55,5.15,6.55,5.15a10.57,10.57,0,0,0,4.47-.89Z" transform="translate(0 0)" style="fill:#003c57"/><path d="M636.64,48.2c-8.61,0-13.34-5-13.34-13.67s5.19-14.16,12.7-14.16a19.88,19.88,0,0,1,4.74.55V8.64h5.69V46.27A21.29,21.29,0,0,1,636.64,48.2Zm4.1-24.26a14,14,0,0,0-3.41-.4c-5.88,0-8.2,4.95-8.2,10.65,0,6.48,2.27,10.35,7.69,10.35a8.72,8.72,0,0,0,3.92-.85Z" transform="translate(0 0)" style="fill:#003c57"/><path d="M663.34,48.2c-8.15,0-12.2-6-12.2-14s4-14.06,12.2-14.06S675.5,26.22,675.5,34.2,671.49,48.2,663.34,48.2Zm0-24.41c-4.92,0-6.37,5.15-6.37,10.35s1.54,10.15,6.37,10.15,6.38-4.95,6.38-10.15S668.26,23.79,663.34,23.79Z" transform="translate(0 0)" style="fill:#003c57"/><path d="M680.43,47.51V8.64h5.7V47.51Z" transform="translate(0 0)" style="fill:#003c57"/></svg>